<svg xmlns="http://www.w3.org/2000/svg" xmlns:xlink="http://www.w3.org/1999/xlink" width="500" zoomAndPan="magnify" viewBox="0 0 375 374.999991" height="500" preserveAspectRatio="xMidYMid meet" version="1.0"><defs><clipPath id="b718789066"><path d="M 17.933594 68.839844 L 357.582031 68.839844 L 357.582031 345.75 L 17.933594 345.75 Z M 17.933594 68.839844 " clip-rule="nonzero"/></clipPath><clipPath id="fc784b89b0"><path d="M 187.5 68.839844 C 93.851562 68.839844 17.933594 130.828125 17.933594 207.292969 C 17.933594 283.761719 93.851562 345.75 187.5 345.75 C 281.148438 345.75 357.066406 283.761719 357.066406 207.292969 C 357.066406 130.828125 281.148438 68.839844 187.5 68.839844 Z M 187.5 68.839844 " clip-rule="nonzero"/></clipPath><clipPath id="86d6cf2d88"><path d="M 17.933594 29.25 L 357.582031 29.25 L 357.582031 306.160156 L 17.933594 306.160156 Z M 17.933594 29.25 " clip-rule="nonzero"/></clipPath><clipPath id="58a011e1e1"><path d="M 187.5 29.25 C 93.851562 29.25 17.933594 91.238281 17.933594 167.707031 C 17.933594 244.171875 93.851562 306.160156 187.5 306.160156 C 281.148438 306.160156 357.066406 244.171875 357.066406 167.707031 C 357.066406 91.238281 281.148438 29.25 187.5 29.25 Z M 187.5 29.25 " clip-rule="nonzero"/></clipPath></defs><g clip-path="url(#b718789066)"><g clip-path="url(#fc784b89b0)"><path fill="#741e1e" d="M 17.933594 68.839844 L 357.582031 68.839844 L 357.582031 345.75 L 17.933594 345.75 Z M 17.933594 68.839844 " fill-opacity="1" fill-rule="nonzero"/></g></g><g clip-path="url(#86d6cf2d88)"><g clip-path="url(#58a011e1e1)"><path fill="#c44f4f" d="M 17.933594 29.25 L 357.582031 29.25 L 357.582031 306.160156 L 17.933594 306.160156 Z M 17.933594 29.25 " fill-opacity="1" fill-rule="nonzero"/></g></g></svg>