<svg xmlns="http://www.w3.org/2000/svg" xmlns:xlink="http://www.w3.org/1999/xlink" width="500" zoomAndPan="magnify" viewBox="0 0 375 374.999991" height="500" preserveAspectRatio="xMidYMid meet" version="1.0"><defs><g/></defs><g fill="#4b664d" fill-opacity="1"><g transform="translate(20.759769, 226.499985)"><g><path d="M 30.84375 -23.515625 C 30.757812 -23.835938 30.695312 -24.21875 30.65625 -24.65625 C 30.613281 -25.09375 30.351562 -25.675781 29.875 -26.40625 C 29.320312 -24.320312 28.820312 -22.378906 28.375 -20.578125 C 27.9375 -18.773438 27.476562 -17.035156 27 -15.359375 C 26.125 -12.078125 25.203125 -8.835938 24.234375 -5.640625 C 23.273438 -2.441406 22.117188 0.675781 20.765625 3.71875 C 19.722656 6.113281 18.5 7.671875 17.09375 8.390625 C 15.695312 9.117188 13.679688 9.320312 11.046875 9 C 8.484375 8.675781 6.5625 7.316406 5.28125 4.921875 C 4 2.273438 2.957031 -0.421875 2.15625 -3.171875 C 1.351562 -5.929688 0.753906 -8.753906 0.359375 -11.640625 C -0.679688 -19.003906 -0.960938 -26.34375 -0.484375 -33.65625 C -0.00390625 -40.976562 1.113281 -48.238281 2.875 -55.4375 C 2.957031 -55.84375 3.054688 -56.222656 3.171875 -56.578125 C 3.296875 -56.941406 3.4375 -57.320312 3.59375 -57.71875 C 3.914062 -59.238281 4.878906 -60 6.484375 -60 C 7.117188 -60 7.734375 -60.019531 8.328125 -60.0625 C 8.929688 -60.101562 9.554688 -60.125 10.203125 -60.125 C 11.796875 -60.195312 12.832031 -59.992188 13.3125 -59.515625 C 13.800781 -59.035156 13.960938 -58.035156 13.796875 -56.515625 C 13.722656 -54.515625 13.582031 -52.535156 13.375 -50.578125 C 13.175781 -48.617188 13.035156 -46.640625 12.953125 -44.640625 C 12.710938 -38.160156 12.59375 -31.660156 12.59375 -25.140625 C 12.59375 -18.617188 13.078125 -12.117188 14.046875 -5.640625 C 14.203125 -4.921875 14.335938 -4.097656 14.453125 -3.171875 C 14.578125 -2.253906 15.039062 -1.757812 15.84375 -1.6875 C 16.800781 -1.601562 17.359375 -2.019531 17.515625 -2.9375 C 17.679688 -3.851562 17.84375 -4.675781 18 -5.40625 C 20.238281 -13.164062 22.4375 -20.941406 24.59375 -28.734375 C 26.757812 -36.535156 28.640625 -44.394531 30.234375 -52.3125 C 30.472656 -53.59375 30.773438 -54.375 31.140625 -54.65625 C 31.503906 -54.9375 32.285156 -55.117188 33.484375 -55.203125 C 35.640625 -55.273438 37.238281 -55.171875 38.28125 -54.890625 C 39.320312 -54.617188 40.019531 -53.984375 40.375 -52.984375 C 40.738281 -51.984375 41 -50.398438 41.15625 -48.234375 C 41.632812 -41.992188 42.492188 -35.832031 43.734375 -29.75 C 44.972656 -23.675781 46.4375 -17.640625 48.125 -11.640625 C 48.363281 -10.753906 48.660156 -9.851562 49.015625 -8.9375 C 49.378906 -8.019531 49.722656 -7.117188 50.046875 -6.234375 C 50.359375 -5.597656 50.710938 -4.957031 51.109375 -4.3125 C 51.515625 -3.675781 52.160156 -3.398438 53.046875 -3.484375 C 53.921875 -3.484375 54.597656 -3.742188 55.078125 -4.265625 C 55.554688 -4.785156 55.957031 -5.40625 56.28125 -6.125 C 56.675781 -7 57.09375 -7.894531 57.53125 -8.8125 C 57.976562 -9.738281 58.363281 -10.679688 58.6875 -11.640625 C 59.800781 -15.003906 60.695312 -18.40625 61.375 -21.84375 C 62.0625 -25.28125 62.5625 -28.757812 62.875 -32.28125 C 63.039062 -34.125 62.398438 -35.679688 60.953125 -36.953125 C 58.234375 -39.597656 55.953125 -42.519531 54.109375 -45.71875 C 52.273438 -48.914062 50.957031 -52.4375 50.15625 -56.28125 C 49.914062 -57.71875 49.796875 -59.15625 49.796875 -60.59375 C 49.796875 -62.039062 50.035156 -63.484375 50.515625 -64.921875 C 51.398438 -67.554688 53.039062 -69.476562 55.4375 -70.6875 C 57.28125 -71.644531 59.117188 -71.820312 60.953125 -71.21875 C 62.796875 -70.613281 64.316406 -69.394531 65.515625 -67.5625 C 66.472656 -65.957031 67.234375 -64.273438 67.796875 -62.515625 C 68.359375 -60.753906 68.800781 -58.914062 69.125 -57 C 69.519531 -54.519531 69.816406 -52.019531 70.015625 -49.5 C 70.210938 -46.976562 70.3125 -44.4375 70.3125 -41.875 C 70.3125 -40.039062 70.570312 -38.742188 71.09375 -37.984375 C 71.613281 -37.222656 72.71875 -36.679688 74.40625 -36.359375 C 76.5625 -35.878906 78.757812 -35.5 81 -35.21875 C 83.238281 -34.9375 85.519531 -34.957031 87.84375 -35.28125 C 88.082031 -35.28125 88.34375 -35.300781 88.625 -35.34375 C 88.90625 -35.382812 89.203125 -35.40625 89.515625 -35.40625 C 90.160156 -35.476562 90.742188 -35.453125 91.265625 -35.328125 C 91.785156 -35.210938 92.082031 -34.675781 92.15625 -33.71875 C 92.238281 -32.675781 92.140625 -31.9375 91.859375 -31.5 C 91.578125 -31.0625 90.957031 -30.757812 90 -30.59375 C 87.757812 -30.28125 85.539062 -30.140625 83.34375 -30.171875 C 81.144531 -30.210938 78.960938 -30.4375 76.796875 -30.84375 C 75.921875 -31 75.0625 -31.132812 74.21875 -31.25 C 73.375 -31.375 72.554688 -31.519531 71.765625 -31.6875 C 70.484375 -32 69.757812 -31.4375 69.59375 -30 C 69.28125 -28.082031 68.984375 -26.140625 68.703125 -24.171875 C 68.421875 -22.210938 68.082031 -20.273438 67.6875 -18.359375 C 67.28125 -16.035156 66.753906 -13.753906 66.109375 -11.515625 C 65.472656 -9.273438 64.632812 -7.117188 63.59375 -5.046875 C 62.070312 -1.921875 59.910156 0.359375 57.109375 1.796875 C 54.316406 3.234375 51.378906 3.710938 48.296875 3.234375 C 45.222656 2.753906 42.441406 1.273438 39.953125 -1.203125 C 38.597656 -2.554688 37.441406 -4.070312 36.484375 -5.75 C 35.523438 -7.4375 34.679688 -9.203125 33.953125 -11.046875 C 33.160156 -13.046875 32.519531 -15.082031 32.03125 -17.15625 C 31.550781 -19.238281 31.15625 -21.359375 30.84375 -23.515625 Z M 59.765625 -61.5625 C 59.523438 -59.5625 59.660156 -57.679688 60.171875 -55.921875 C 60.691406 -54.160156 61.472656 -52.441406 62.515625 -50.765625 C 62.273438 -52.597656 62.035156 -54.453125 61.796875 -56.328125 C 61.554688 -58.210938 60.878906 -59.957031 59.765625 -61.5625 Z M 59.765625 -61.5625 "/></g></g></g><g fill="#4b664d" fill-opacity="1"><g transform="translate(109.679807, 226.499985)"><g><path d="M 64.4375 -33.59375 C 65.5625 -33.113281 66.179688 -32.710938 66.296875 -32.390625 C 66.421875 -32.078125 66.242188 -31.320312 65.765625 -30.125 C 63.441406 -24.914062 61.054688 -19.769531 58.609375 -14.6875 C 56.171875 -9.613281 53.632812 -4.554688 51 0.484375 C 50.4375 1.597656 49.796875 2.710938 49.078125 3.828125 C 48.359375 4.953125 47.5625 5.992188 46.6875 6.953125 C 45.082031 8.710938 43.160156 9.773438 40.921875 10.140625 C 38.679688 10.503906 36.519531 10.222656 34.4375 9.296875 C 32.351562 8.378906 30.753906 6.878906 29.640625 4.796875 C 28.441406 2.472656 27.539062 0.0546875 26.9375 -2.453125 C 26.34375 -4.972656 25.84375 -7.515625 25.4375 -10.078125 C 25.039062 -12.484375 24.78125 -14.863281 24.65625 -17.21875 C 24.539062 -19.582031 24.398438 -21.960938 24.234375 -24.359375 C 24.234375 -24.597656 24.234375 -24.894531 24.234375 -25.25 C 24.234375 -25.613281 24.035156 -25.957031 23.640625 -26.28125 C 23.003906 -25.082031 22.34375 -23.921875 21.65625 -22.796875 C 20.976562 -21.679688 20.28125 -20.519531 19.5625 -19.3125 C 18.914062 -18.195312 18.210938 -17.117188 17.453125 -16.078125 C 16.691406 -15.035156 15.875 -13.992188 15 -12.953125 C 13.238281 -11.117188 11.039062 -10.203125 8.40625 -10.203125 C 5.039062 -10.203125 2.71875 -11.722656 1.4375 -14.765625 C 0.800781 -16.285156 0.320312 -17.84375 0 -19.4375 C -0.320312 -21.039062 -0.519531 -22.640625 -0.59375 -24.234375 C -0.757812 -27.679688 -0.601562 -31.039062 -0.125 -34.3125 C 0.351562 -37.59375 1.273438 -40.796875 2.640625 -43.921875 C 4.242188 -47.597656 6.382812 -50.71875 9.0625 -53.28125 C 11.738281 -55.84375 15.15625 -57.519531 19.3125 -58.3125 C 20.757812 -58.5625 22.140625 -58.601562 23.453125 -58.4375 C 24.773438 -58.28125 26.117188 -58.039062 27.484375 -57.71875 C 28.285156 -57.5625 29.203125 -57.640625 30.234375 -57.953125 C 31.835938 -58.597656 33.5 -58.898438 35.21875 -58.859375 C 36.9375 -58.816406 38.632812 -58.757812 40.3125 -58.6875 C 40.71875 -58.6875 41 -58.546875 41.15625 -58.265625 C 41.320312 -57.984375 41.441406 -57.679688 41.515625 -57.359375 C 41.753906 -56.640625 41.894531 -55.898438 41.9375 -55.140625 C 41.976562 -54.378906 42 -53.640625 42 -52.921875 C 41.914062 -46.515625 41.710938 -40.128906 41.390625 -33.765625 C 41.078125 -27.410156 40.71875 -21.035156 40.3125 -14.640625 C 40.15625 -12.242188 40.035156 -9.863281 39.953125 -7.5 C 39.878906 -5.132812 39.878906 -2.753906 39.953125 -0.359375 C 39.953125 0.273438 39.992188 0.953125 40.078125 1.671875 C 40.160156 2.398438 40.363281 3.125 40.6875 3.84375 C 41.320312 3.601562 41.816406 3.222656 42.171875 2.703125 C 42.535156 2.179688 42.878906 1.71875 43.203125 1.3125 C 45.117188 -1.476562 46.875 -4.375 48.46875 -7.375 C 50.070312 -10.375 51.632812 -13.394531 53.15625 -16.4375 C 54.519531 -19 55.820312 -21.578125 57.0625 -24.171875 C 58.300781 -26.773438 59.5625 -29.359375 60.84375 -31.921875 C 61.476562 -33.203125 61.972656 -33.921875 62.328125 -34.078125 C 62.691406 -34.234375 63.394531 -34.070312 64.4375 -33.59375 Z M 27.484375 -49.203125 C 27.640625 -50.878906 27.253906 -52.078125 26.328125 -52.796875 C 25.410156 -53.515625 24.15625 -53.675781 22.5625 -53.28125 C 21.914062 -53.039062 21.3125 -52.738281 20.75 -52.375 C 20.195312 -52.019531 19.679688 -51.601562 19.203125 -51.125 C 18.242188 -50.238281 17.398438 -49.296875 16.671875 -48.296875 C 15.953125 -47.296875 15.273438 -46.273438 14.640625 -45.234375 C 12.242188 -41.472656 10.5625 -37.53125 9.59375 -33.40625 C 8.632812 -29.289062 8.117188 -25.035156 8.046875 -20.640625 C 8.046875 -20.316406 8.023438 -19.972656 7.984375 -19.609375 C 7.941406 -19.253906 7.960938 -18.914062 8.046875 -18.59375 C 8.117188 -17.875 8.078125 -17.070312 7.921875 -16.1875 C 7.765625 -15.3125 8.203125 -14.753906 9.234375 -14.515625 C 10.117188 -14.273438 10.800781 -14.535156 11.28125 -15.296875 C 11.757812 -16.054688 12.160156 -16.757812 12.484375 -17.40625 C 15.203125 -21.882812 17.703125 -26.460938 19.984375 -31.140625 C 22.265625 -35.816406 24.441406 -40.515625 26.515625 -45.234375 C 26.992188 -46.441406 27.316406 -47.765625 27.484375 -49.203125 Z M 27.484375 -49.203125 "/></g></g></g><g fill="#4b664d" fill-opacity="1"><g transform="translate(171.479833, 226.499985)"><g><path d="M -4.203125 -39.953125 C -4.273438 -41.554688 -4.351562 -43.140625 -4.4375 -44.703125 C -4.519531 -46.265625 -4.601562 -47.601562 -4.6875 -48.71875 C -4.519531 -54.957031 -4.054688 -60.894531 -3.296875 -66.53125 C -2.535156 -72.175781 -1.238281 -77.71875 0.59375 -83.15625 C 1.476562 -85.800781 2.539062 -88.363281 3.78125 -90.84375 C 5.019531 -93.320312 6.519531 -95.640625 8.28125 -97.796875 C 9.71875 -99.722656 11.351562 -101.34375 13.1875 -102.65625 C 15.03125 -103.976562 17.195312 -104.878906 19.6875 -105.359375 C 22.644531 -105.921875 25.363281 -105.539062 27.84375 -104.21875 C 30.320312 -102.894531 32.160156 -100.835938 33.359375 -98.046875 C 34.242188 -95.960938 34.804688 -93.859375 35.046875 -91.734375 C 35.285156 -89.617188 35.320312 -87.476562 35.15625 -85.3125 C 34.675781 -79.238281 33.316406 -73.320312 31.078125 -67.5625 C 28.515625 -61.15625 25.734375 -54.890625 22.734375 -48.765625 C 19.734375 -42.648438 16.15625 -36.832031 12 -31.3125 C 11.195312 -30.195312 10.835938 -29.039062 10.921875 -27.84375 C 11.160156 -23.914062 11.679688 -20.050781 12.484375 -16.25 C 13.285156 -12.457031 14.40625 -8.722656 15.84375 -5.046875 C 15.84375 -4.878906 15.878906 -4.710938 15.953125 -4.546875 C 16.035156 -4.390625 16.117188 -4.234375 16.203125 -4.078125 C 18.359375 0.078125 21.195312 0.554688 24.71875 -2.640625 C 25.601562 -3.515625 26.40625 -4.472656 27.125 -5.515625 C 27.84375 -6.554688 28.519531 -7.597656 29.15625 -8.640625 C 31.15625 -12.160156 32.914062 -15.78125 34.4375 -19.5 C 35.957031 -23.21875 37.554688 -26.878906 39.234375 -30.484375 C 39.398438 -30.796875 39.539062 -31.113281 39.65625 -31.4375 C 39.78125 -31.757812 39.921875 -32.082031 40.078125 -32.40625 C 40.554688 -33.4375 41.253906 -34.070312 42.171875 -34.3125 C 43.097656 -34.5625 44.039062 -34.363281 45 -33.71875 C 45.394531 -33.476562 45.59375 -33.117188 45.59375 -32.640625 C 45.519531 -32.242188 45.441406 -31.925781 45.359375 -31.6875 C 43.679688 -27.28125 42.019531 -22.875 40.375 -18.46875 C 38.738281 -14.070312 36.679688 -9.875 34.203125 -5.875 C 33.722656 -5.15625 33.222656 -4.457031 32.703125 -3.78125 C 32.179688 -3.101562 31.679688 -2.441406 31.203125 -1.796875 C 29.359375 0.523438 27.253906 2.125 24.890625 3 C 22.535156 3.875 19.921875 4.15625 17.046875 3.84375 C 13.359375 3.519531 10.359375 1.921875 8.046875 -0.953125 C 6.523438 -2.878906 5.203125 -4.921875 4.078125 -7.078125 C 2.960938 -9.234375 2.003906 -11.472656 1.203125 -13.796875 C -0.316406 -18.035156 -1.492188 -22.332031 -2.328125 -26.6875 C -3.171875 -31.050781 -3.796875 -35.472656 -4.203125 -39.953125 Z M 9.71875 -40.6875 C 9.71875 -40.4375 9.753906 -40.148438 9.828125 -39.828125 C 9.910156 -39.515625 10.195312 -39.195312 10.6875 -38.875 C 11.082031 -39.519531 11.4375 -40.140625 11.75 -40.734375 C 12.070312 -41.335938 12.394531 -41.921875 12.71875 -42.484375 C 14.320312 -45.359375 15.800781 -48.273438 17.15625 -51.234375 C 18.519531 -54.203125 19.84375 -57.203125 21.125 -60.234375 C 22.71875 -64.234375 24.015625 -68.3125 25.015625 -72.46875 C 26.015625 -76.632812 26.632812 -80.878906 26.875 -85.203125 C 26.957031 -87.273438 26.835938 -89.289062 26.515625 -91.25 C 26.203125 -93.21875 25.5625 -95.160156 24.59375 -97.078125 C 23.070312 -100.117188 21.351562 -100.238281 19.4375 -97.4375 C 18.800781 -96.476562 18.242188 -95.5 17.765625 -94.5 C 17.285156 -93.5 16.84375 -92.476562 16.4375 -91.4375 C 13.394531 -83.195312 11.394531 -74.859375 10.4375 -66.421875 C 9.476562 -57.984375 9.238281 -49.40625 9.71875 -40.6875 Z M 9.71875 -40.6875 "/></g></g></g><g fill="#4b664d" fill-opacity="1"><g transform="translate(211.079856, 226.499985)"><g><path d="M -4.203125 -39.953125 C -4.273438 -41.554688 -4.351562 -43.140625 -4.4375 -44.703125 C -4.519531 -46.265625 -4.601562 -47.601562 -4.6875 -48.71875 C -4.519531 -54.957031 -4.054688 -60.894531 -3.296875 -66.53125 C -2.535156 -72.175781 -1.238281 -77.71875 0.59375 -83.15625 C 1.476562 -85.800781 2.539062 -88.363281 3.78125 -90.84375 C 5.019531 -93.320312 6.519531 -95.640625 8.28125 -97.796875 C 9.71875 -99.722656 11.351562 -101.34375 13.1875 -102.65625 C 15.03125 -103.976562 17.195312 -104.878906 19.6875 -105.359375 C 22.644531 -105.921875 25.363281 -105.539062 27.84375 -104.21875 C 30.320312 -102.894531 32.160156 -100.835938 33.359375 -98.046875 C 34.242188 -95.960938 34.804688 -93.859375 35.046875 -91.734375 C 35.285156 -89.617188 35.320312 -87.476562 35.15625 -85.3125 C 34.675781 -79.238281 33.316406 -73.320312 31.078125 -67.5625 C 28.515625 -61.15625 25.734375 -54.890625 22.734375 -48.765625 C 19.734375 -42.648438 16.15625 -36.832031 12 -31.3125 C 11.195312 -30.195312 10.835938 -29.039062 10.921875 -27.84375 C 11.160156 -23.914062 11.679688 -20.050781 12.484375 -16.25 C 13.285156 -12.457031 14.40625 -8.722656 15.84375 -5.046875 C 15.84375 -4.878906 15.878906 -4.710938 15.953125 -4.546875 C 16.035156 -4.390625 16.117188 -4.234375 16.203125 -4.078125 C 18.359375 0.078125 21.195312 0.554688 24.71875 -2.640625 C 25.601562 -3.515625 26.40625 -4.472656 27.125 -5.515625 C 27.84375 -6.554688 28.519531 -7.597656 29.15625 -8.640625 C 31.15625 -12.160156 32.914062 -15.78125 34.4375 -19.5 C 35.957031 -23.21875 37.554688 -26.878906 39.234375 -30.484375 C 39.398438 -30.796875 39.539062 -31.113281 39.65625 -31.4375 C 39.78125 -31.757812 39.921875 -32.082031 40.078125 -32.40625 C 40.554688 -33.4375 41.253906 -34.070312 42.171875 -34.3125 C 43.097656 -34.5625 44.039062 -34.363281 45 -33.71875 C 45.394531 -33.476562 45.59375 -33.117188 45.59375 -32.640625 C 45.519531 -32.242188 45.441406 -31.925781 45.359375 -31.6875 C 43.679688 -27.28125 42.019531 -22.875 40.375 -18.46875 C 38.738281 -14.070312 36.679688 -9.875 34.203125 -5.875 C 33.722656 -5.15625 33.222656 -4.457031 32.703125 -3.78125 C 32.179688 -3.101562 31.679688 -2.441406 31.203125 -1.796875 C 29.359375 0.523438 27.253906 2.125 24.890625 3 C 22.535156 3.875 19.921875 4.15625 17.046875 3.84375 C 13.359375 3.519531 10.359375 1.921875 8.046875 -0.953125 C 6.523438 -2.878906 5.203125 -4.921875 4.078125 -7.078125 C 2.960938 -9.234375 2.003906 -11.472656 1.203125 -13.796875 C -0.316406 -18.035156 -1.492188 -22.332031 -2.328125 -26.6875 C -3.171875 -31.050781 -3.796875 -35.472656 -4.203125 -39.953125 Z M 9.71875 -40.6875 C 9.71875 -40.4375 9.753906 -40.148438 9.828125 -39.828125 C 9.910156 -39.515625 10.195312 -39.195312 10.6875 -38.875 C 11.082031 -39.519531 11.4375 -40.140625 11.75 -40.734375 C 12.070312 -41.335938 12.394531 -41.921875 12.71875 -42.484375 C 14.320312 -45.359375 15.800781 -48.273438 17.15625 -51.234375 C 18.519531 -54.203125 19.84375 -57.203125 21.125 -60.234375 C 22.71875 -64.234375 24.015625 -68.3125 25.015625 -72.46875 C 26.015625 -76.632812 26.632812 -80.878906 26.875 -85.203125 C 26.957031 -87.273438 26.835938 -89.289062 26.515625 -91.25 C 26.203125 -93.21875 25.5625 -95.160156 24.59375 -97.078125 C 23.070312 -100.117188 21.351562 -100.238281 19.4375 -97.4375 C 18.800781 -96.476562 18.242188 -95.5 17.765625 -94.5 C 17.285156 -93.5 16.84375 -92.476562 16.4375 -91.4375 C 13.394531 -83.195312 11.394531 -74.859375 10.4375 -66.421875 C 9.476562 -57.984375 9.238281 -49.40625 9.71875 -40.6875 Z M 9.71875 -40.6875 "/></g></g></g><g fill="#4b664d" fill-opacity="1"><g transform="translate(250.67989, 226.499985)"><g><path d="M 50.28125 -34.921875 C 51.082031 -34.441406 51.363281 -33.960938 51.125 -33.484375 C 50.882812 -33.003906 50.601562 -32.523438 50.28125 -32.046875 C 47.476562 -27.878906 44.613281 -23.753906 41.6875 -19.671875 C 38.769531 -15.597656 35.832031 -11.519531 32.875 -7.4375 C 31.113281 -5.113281 29.035156 -3.472656 26.640625 -2.515625 C 24.242188 -1.554688 21.785156 -1.15625 19.265625 -1.3125 C 16.742188 -1.476562 14.363281 -2.0625 12.125 -3.0625 C 9.882812 -4.0625 8.039062 -5.398438 6.59375 -7.078125 C 4.4375 -9.796875 2.71875 -12.695312 1.4375 -15.78125 C 0.15625 -18.863281 -0.757812 -22.125 -1.3125 -25.5625 C -1.5625 -26.757812 -1.742188 -27.976562 -1.859375 -29.21875 C -1.984375 -30.457031 -2.003906 -31.71875 -1.921875 -33 C -1.835938 -36.84375 -1.375 -40.625 -0.53125 -44.34375 C 0.300781 -48.0625 1.640625 -51.679688 3.484375 -55.203125 C 4.523438 -57.203125 5.785156 -59.0625 7.265625 -60.78125 C 8.742188 -62.5 10.484375 -63.921875 12.484375 -65.046875 C 14.722656 -66.316406 16.960938 -67.03125 19.203125 -67.1875 C 21.441406 -67.351562 23.679688 -66.675781 25.921875 -65.15625 C 28.160156 -63.632812 29.679688 -61.796875 30.484375 -59.640625 C 31.285156 -57.484375 31.484375 -55.082031 31.078125 -52.4375 C 30.359375 -47.71875 28.695312 -43.757812 26.09375 -40.5625 C 23.5 -37.363281 19.878906 -35.082031 15.234375 -33.71875 C 13.710938 -33.320312 12.992188 -32.398438 13.078125 -30.953125 C 13.160156 -27.515625 13.539062 -24.132812 14.21875 -20.8125 C 14.894531 -17.5 15.753906 -14.242188 16.796875 -11.046875 C 17.273438 -9.597656 18.035156 -8.316406 19.078125 -7.203125 C 20.515625 -5.679688 22.113281 -5.519531 23.875 -6.71875 C 24.519531 -7.113281 25.082031 -7.570312 25.5625 -8.09375 C 26.039062 -8.613281 26.519531 -9.15625 27 -9.71875 C 29.875 -13 32.628906 -16.378906 35.265625 -19.859375 C 37.910156 -23.335938 40.515625 -26.835938 43.078125 -30.359375 C 43.554688 -31.078125 44.054688 -31.816406 44.578125 -32.578125 C 45.097656 -33.335938 45.640625 -34.078125 46.203125 -34.796875 C 46.835938 -35.515625 47.4375 -35.875 48 -35.875 C 48.5625 -35.875 49.320312 -35.554688 50.28125 -34.921875 Z M 15 -49.5625 C 14.519531 -47.644531 14.097656 -45.703125 13.734375 -43.734375 C 13.378906 -41.773438 13.203125 -39.757812 13.203125 -37.6875 C 13.597656 -37.601562 13.9375 -37.597656 14.21875 -37.671875 C 14.5 -37.753906 14.757812 -37.878906 15 -38.046875 C 16.914062 -39.160156 18.550781 -40.878906 19.90625 -43.203125 C 21.269531 -45.523438 22.191406 -48.003906 22.671875 -50.640625 C 23.160156 -53.273438 23.082031 -55.632812 22.4375 -57.71875 C 22.351562 -57.800781 22.3125 -57.898438 22.3125 -58.015625 C 22.3125 -58.140625 22.273438 -58.238281 22.203125 -58.3125 C 21.960938 -58.800781 21.703125 -59.265625 21.421875 -59.703125 C 21.140625 -60.140625 20.71875 -60.359375 20.15625 -60.359375 C 19.59375 -60.441406 19.148438 -60.28125 18.828125 -59.875 C 18.515625 -59.476562 18.238281 -59.039062 18 -58.5625 C 17.4375 -57.039062 16.894531 -55.539062 16.375 -54.0625 C 15.851562 -52.582031 15.394531 -51.082031 15 -49.5625 Z M 15 -49.5625 "/></g></g></g><g fill="#4b664d" fill-opacity="1"><g transform="translate(295.919916, 226.499985)"><g><path d="M 47.28125 -30.953125 C 47.28125 -30.234375 47.28125 -29.472656 47.28125 -28.671875 C 47.28125 -27.878906 47.28125 -26.960938 47.28125 -25.921875 C 49.039062 -27.035156 50.617188 -28.253906 52.015625 -29.578125 C 53.421875 -30.898438 54.765625 -32.203125 56.046875 -33.484375 C 56.835938 -34.285156 57.613281 -35.125 58.375 -36 C 59.132812 -36.875 59.914062 -37.710938 60.71875 -38.515625 C 60.957031 -38.835938 61.253906 -39.140625 61.609375 -39.421875 C 61.972656 -39.703125 62.359375 -39.601562 62.765625 -39.125 C 63.160156 -38.5625 63.617188 -37.976562 64.140625 -37.375 C 64.660156 -36.78125 64.679688 -36.003906 64.203125 -35.046875 C 63.960938 -34.640625 63.703125 -34.273438 63.421875 -33.953125 C 63.140625 -33.640625 62.835938 -33.28125 62.515625 -32.875 C 60.515625 -30.320312 58.351562 -27.90625 56.03125 -25.625 C 53.71875 -23.34375 51.203125 -21.320312 48.484375 -19.5625 C 47.203125 -18.675781 46.441406 -17.273438 46.203125 -15.359375 C 45.554688 -10.960938 44.691406 -6.660156 43.609375 -2.453125 C 42.535156 1.742188 41.078125 5.84375 39.234375 9.84375 C 38.203125 12.15625 37.023438 14.375 35.703125 16.5 C 34.378906 18.625 32.878906 20.601562 31.203125 22.4375 C 28.316406 25.476562 25.191406 27.476562 21.828125 28.4375 C 18.472656 29.394531 14.914062 29.394531 11.15625 28.4375 C 7.476562 27.5625 4.859375 25.582031 3.296875 22.5 C 1.734375 19.414062 1.515625 15.796875 2.640625 11.640625 C 3.117188 9.796875 3.816406 8.050781 4.734375 6.40625 C 5.660156 4.769531 6.679688 3.234375 7.796875 1.796875 C 9.960938 -0.765625 12.300781 -3.046875 14.8125 -5.046875 C 17.332031 -7.046875 19.957031 -8.84375 22.6875 -10.4375 C 24.84375 -11.71875 27.082031 -12.957031 29.40625 -14.15625 C 30.675781 -14.875 31.394531 -15.992188 31.5625 -17.515625 C 31.882812 -21.203125 32.203125 -24.921875 32.515625 -28.671875 C 32.835938 -32.429688 33.195312 -36.234375 33.59375 -40.078125 C 32.875 -39.835938 32.414062 -39.4375 32.21875 -38.875 C 32.019531 -38.320312 31.84375 -37.84375 31.6875 -37.4375 C 30.476562 -34.800781 29.210938 -32.203125 27.890625 -29.640625 C 26.578125 -27.078125 25.160156 -24.632812 23.640625 -22.3125 C 21.796875 -19.4375 19.65625 -17.578125 17.21875 -16.734375 C 14.78125 -15.898438 12.117188 -15.800781 9.234375 -16.4375 C 6.035156 -17.082031 3.675781 -19.125 2.15625 -22.5625 C 1.28125 -24.644531 0.640625 -26.804688 0.234375 -29.046875 C -0.160156 -31.285156 -0.359375 -33.523438 -0.359375 -35.765625 C -0.515625 -41.441406 -0.335938 -47.054688 0.171875 -52.609375 C 0.691406 -58.171875 1.472656 -63.710938 2.515625 -69.234375 C 2.921875 -71.472656 3.363281 -72.789062 3.84375 -73.1875 C 4.320312 -73.59375 5.519531 -73.878906 7.4375 -74.046875 C 9.195312 -74.285156 11.078125 -74.523438 13.078125 -74.765625 C 14.679688 -74.921875 15.363281 -74.117188 15.125 -72.359375 C 14.957031 -71.242188 14.796875 -70.125 14.640625 -69 C 14.484375 -67.875 14.320312 -66.753906 14.15625 -65.640625 C 13.519531 -60.515625 13.039062 -55.390625 12.71875 -50.265625 C 12.394531 -45.148438 12.351562 -39.992188 12.59375 -34.796875 C 12.59375 -33.273438 12.671875 -31.753906 12.828125 -30.234375 C 12.992188 -28.710938 13.316406 -27.234375 13.796875 -25.796875 C 14.679688 -23.472656 15.800781 -23.273438 17.15625 -25.203125 C 17.71875 -25.921875 18.238281 -26.695312 18.71875 -27.53125 C 19.195312 -28.375 19.675781 -29.238281 20.15625 -30.125 C 23.113281 -35.40625 25.613281 -40.882812 27.65625 -46.5625 C 29.695312 -52.238281 31.796875 -57.914062 33.953125 -63.59375 C 34.117188 -64.070312 34.28125 -64.507812 34.4375 -64.90625 C 34.601562 -65.3125 34.722656 -65.753906 34.796875 -66.234375 C 35.359375 -68.953125 36.878906 -70.273438 39.359375 -70.203125 C 40.316406 -70.203125 41.253906 -70.28125 42.171875 -70.4375 C 43.097656 -70.601562 44.039062 -70.722656 45 -70.796875 C 46.4375 -71.035156 47.238281 -70.359375 47.40625 -68.765625 C 47.476562 -68.046875 47.554688 -67.363281 47.640625 -66.71875 C 47.722656 -66.082031 47.765625 -65.441406 47.765625 -64.796875 C 47.921875 -59.117188 47.976562 -53.457031 47.9375 -47.8125 C 47.894531 -42.175781 47.675781 -36.554688 47.28125 -30.953125 Z M 29.765625 -6.71875 C 29.765625 -6.71875 29.644531 -7 29.40625 -7.5625 C 27.164062 -6.195312 25.003906 -4.734375 22.921875 -3.171875 C 20.835938 -1.617188 18.914062 0.15625 17.15625 2.15625 C 14.914062 4.632812 13.238281 7.515625 12.125 10.796875 C 11.644531 12.160156 11.363281 13.519531 11.28125 14.875 C 11.195312 16.238281 11.394531 17.597656 11.875 18.953125 C 12.519531 21.117188 13.601562 22.421875 15.125 22.859375 C 16.644531 23.296875 18.164062 22.835938 19.6875 21.484375 C 20.164062 21.003906 20.625 20.484375 21.0625 19.921875 C 21.5 19.359375 21.878906 18.757812 22.203125 18.125 C 24.273438 14.28125 25.875 10.257812 27 6.0625 C 28.125 1.863281 29.046875 -2.394531 29.765625 -6.71875 Z M 29.765625 -6.71875 "/></g></g></g></svg>