<svg xmlns="http://www.w3.org/2000/svg" xmlns:xlink="http://www.w3.org/1999/xlink" width="500" zoomAndPan="magnify" viewBox="0 0 375 374.999991" height="500" preserveAspectRatio="xMidYMid meet" version="1.0"><defs><clipPath id="05b484dafb"><path d="M 0 65 L 355 65 L 355 345.28125 L 0 345.28125 Z M 0 65 " clip-rule="nonzero"/></clipPath><clipPath id="8779ff61fb"><path d="M 258.6875 193.691406 L 314.375 193.691406 L 314.375 235.933594 L 258.6875 235.933594 Z M 258.6875 193.691406 " clip-rule="nonzero"/></clipPath><clipPath id="fc35205325"><path d="M 265.625 201.21875 L 287.855469 201.21875 L 287.855469 235.933594 L 265.625 235.933594 Z M 265.625 201.21875 " clip-rule="nonzero"/></clipPath><clipPath id="7737b7f98a"><path d="M 313.835938 203.199219 C 310.316406 190.644531 292.191406 193.148438 282.871094 196.105469 C 276.460938 198.140625 270.234375 201.492188 265.363281 206.179688 C 261.972656 209.445312 259.292969 213.792969 258.914062 218.390625 C 258.277344 222.683594 259.480469 226.996094 263.5625 230.367188 C 272.792969 237.996094 287.753906 237.164062 297.734375 231.621094 C 302.640625 228.898438 306.84375 224.933594 309.917969 220.242188 C 313.121094 215.347656 315.480469 209.066406 313.835938 203.199219 Z M 313.835938 203.199219 " clip-rule="nonzero"/></clipPath><clipPath id="a54f3d5a5b"><path d="M 281.109375 193.691406 L 304.859375 193.691406 L 304.859375 232.183594 L 281.109375 232.183594 Z M 281.109375 193.691406 " clip-rule="nonzero"/></clipPath><clipPath id="cc7b7efcd2"><path d="M 313.835938 203.199219 C 310.316406 190.644531 292.191406 193.148438 282.871094 196.105469 C 276.460938 198.140625 270.234375 201.492188 265.363281 206.179688 C 261.972656 209.445312 259.292969 213.792969 258.914062 218.390625 C 258.277344 222.683594 259.480469 226.996094 263.5625 230.367188 C 272.792969 237.996094 287.753906 237.164062 297.734375 231.621094 C 302.640625 228.898438 306.84375 224.933594 309.917969 220.242188 C 313.121094 215.347656 315.480469 209.066406 313.835938 203.199219 Z M 313.835938 203.199219 " clip-rule="nonzero"/></clipPath></defs><g clip-path="url(#05b484dafb)"><path fill="#2a3e2c" d="M 47.097656 65.644531 L 306.933594 65.644531 C 308.492188 65.644531 310.042969 65.722656 311.589844 65.875 C 313.140625 66.027344 314.675781 66.253906 316.203125 66.558594 C 317.726562 66.863281 319.234375 67.238281 320.722656 67.691406 C 322.210938 68.140625 323.675781 68.664062 325.113281 69.261719 C 326.550781 69.855469 327.953125 70.519531 329.328125 71.253906 C 330.699219 71.988281 332.03125 72.785156 333.324219 73.648438 C 334.617188 74.515625 335.867188 75.441406 337.070312 76.425781 C 338.273438 77.414062 339.421875 78.457031 340.523438 79.558594 C 341.625 80.65625 342.667969 81.808594 343.652344 83.011719 C 344.640625 84.214844 345.566406 85.460938 346.429688 86.753906 C 347.292969 88.050781 348.09375 89.382812 348.828125 90.753906 C 349.558594 92.125 350.222656 93.53125 350.820312 94.96875 C 351.414062 96.40625 351.9375 97.867188 352.390625 99.355469 C 352.839844 100.84375 353.21875 102.351562 353.523438 103.878906 C 353.828125 105.402344 354.054688 106.941406 354.207031 108.488281 C 354.359375 110.039062 354.433594 111.589844 354.433594 113.144531 L 354.433594 298.144531 C 354.433594 299.699219 354.359375 301.253906 354.207031 302.800781 C 354.054688 304.347656 353.828125 305.886719 353.523438 307.410156 C 353.21875 308.9375 352.839844 310.445312 352.390625 311.933594 C 351.9375 313.421875 351.414062 314.886719 350.820312 316.324219 C 350.222656 317.761719 349.558594 319.164062 348.828125 320.535156 C 348.09375 321.910156 347.292969 323.242188 346.429688 324.535156 C 345.566406 325.828125 344.640625 327.078125 343.652344 328.277344 C 342.667969 329.480469 341.625 330.632812 340.523438 331.734375 C 339.421875 332.832031 338.273438 333.875 337.070312 334.863281 C 335.867188 335.851562 334.617188 336.777344 333.324219 337.640625 C 332.03125 338.503906 330.699219 339.304688 329.328125 340.035156 C 327.953125 340.769531 326.550781 341.433594 325.113281 342.03125 C 323.675781 342.625 322.210938 343.148438 320.722656 343.601562 C 319.234375 344.050781 317.726562 344.429688 316.203125 344.734375 C 314.675781 345.035156 313.140625 345.265625 311.589844 345.417969 C 310.042969 345.570312 308.492188 345.644531 306.933594 345.644531 L 47.097656 345.644531 C 45.542969 345.644531 43.988281 345.570312 42.441406 345.417969 C 40.894531 345.265625 39.355469 345.035156 37.828125 344.730469 C 36.304688 344.429688 34.796875 344.050781 33.308594 343.601562 C 31.820312 343.148438 30.355469 342.625 28.917969 342.03125 C 27.480469 341.433594 26.078125 340.769531 24.707031 340.035156 C 23.332031 339.304688 22 338.503906 20.707031 337.640625 C 19.414062 336.777344 18.164062 335.851562 16.964844 334.863281 C 15.761719 333.875 14.609375 332.832031 13.507812 331.734375 C 12.410156 330.632812 11.367188 329.480469 10.378906 328.277344 C 9.390625 327.078125 8.464844 325.828125 7.601562 324.535156 C 6.738281 323.242188 5.9375 321.910156 5.207031 320.535156 C 4.472656 319.164062 3.808594 317.761719 3.210938 316.324219 C 2.617188 314.886719 2.09375 313.421875 1.640625 311.933594 C 1.191406 310.445312 0.8125 308.9375 0.507812 307.410156 C 0.207031 305.886719 -0.0234375 304.347656 -0.175781 302.800781 C -0.328125 301.253906 -0.402344 299.699219 -0.402344 298.144531 L -0.402344 113.144531 C -0.402344 111.589844 -0.328125 110.039062 -0.175781 108.488281 C -0.0234375 106.941406 0.207031 105.402344 0.507812 103.878906 C 0.8125 102.351562 1.191406 100.84375 1.640625 99.355469 C 2.09375 97.867188 2.617188 96.40625 3.210938 94.96875 C 3.808594 93.53125 4.472656 92.125 5.207031 90.753906 C 5.9375 89.382812 6.738281 88.050781 7.601562 86.753906 C 8.464844 85.460938 9.390625 84.214844 10.378906 83.011719 C 11.367188 81.808594 12.410156 80.65625 13.507812 79.558594 C 14.609375 78.457031 15.761719 77.414062 16.964844 76.425781 C 18.164062 75.441406 19.414062 74.515625 20.707031 73.648438 C 22 72.785156 23.332031 71.988281 24.707031 71.253906 C 26.078125 70.519531 27.480469 69.855469 28.917969 69.261719 C 30.355469 68.664062 31.820312 68.140625 33.308594 67.691406 C 34.796875 67.238281 36.304688 66.863281 37.828125 66.558594 C 39.355469 66.253906 40.894531 66.027344 42.441406 65.875 C 43.988281 65.722656 45.542969 65.644531 47.097656 65.644531 Z M 47.097656 65.644531 " fill-opacity="1" fill-rule="nonzero"/></g><path fill="#ffffff" d="M 296.128906 123.144531 L 57.257812 123.144531 C 52.824219 123.144531 49.195312 119.515625 49.195312 115.082031 C 49.195312 110.644531 52.824219 107.015625 57.257812 107.015625 L 296.128906 107.015625 C 300.566406 107.015625 304.195312 110.644531 304.195312 115.082031 C 304.195312 119.515625 300.566406 123.144531 296.128906 123.144531 Z M 296.128906 123.144531 " fill-opacity="1" fill-rule="nonzero"/><path fill="#99c1a9" d="M 64.757812 123.226562 L 220.566406 36.046875 C 231.453125 30 245.644531 34.515625 250 45.402344 L 281.046875 123.144531 L 64.757812 123.144531 Z M 64.757812 123.226562 " fill-opacity="1" fill-rule="nonzero"/><path fill="#6c946f" d="M 73.386719 118.386719 L 64.757812 123.226562 L 280.96875 123.226562 L 279.03125 118.386719 Z M 73.386719 118.386719 " fill-opacity="1" fill-rule="nonzero"/><path fill="#99c1a9" d="M 273.789062 167.824219 L 362.902344 167.824219 C 369.355469 167.824219 374.597656 173.066406 374.597656 179.515625 L 374.597656 244.757812 C 374.597656 251.210938 369.355469 256.453125 362.902344 256.453125 L 273.789062 256.453125 C 249.355469 256.453125 229.433594 236.613281 229.433594 212.097656 C 229.433594 187.660156 249.273438 167.742188 273.789062 167.742188 Z M 273.789062 167.824219 " fill-opacity="1" fill-rule="nonzero"/><path fill="#6c946f" d="M 273.789062 248.386719 C 250.644531 248.386719 231.695312 230.644531 229.675781 208.066406 C 229.597656 209.355469 229.433594 210.726562 229.433594 212.097656 C 229.433594 236.613281 249.273438 256.453125 273.789062 256.453125 L 362.902344 256.453125 C 369.113281 256.453125 374.113281 251.613281 374.515625 245.484375 C 372.5 247.257812 369.839844 248.386719 366.933594 248.386719 Z M 273.789062 248.386719 " fill-opacity="1" fill-rule="nonzero"/><path fill="#ffffff" d="M 297.984375 212.097656 C 297.984375 212.679688 297.957031 213.257812 297.898438 213.835938 C 297.839844 214.414062 297.757812 214.988281 297.644531 215.558594 C 297.53125 216.128906 297.386719 216.691406 297.21875 217.246094 C 297.050781 217.804688 296.855469 218.347656 296.632812 218.886719 C 296.410156 219.421875 296.164062 219.949219 295.890625 220.460938 C 295.613281 220.972656 295.316406 221.46875 294.992188 221.953125 C 294.671875 222.4375 294.324219 222.902344 293.957031 223.351562 C 293.589844 223.800781 293.199219 224.230469 292.789062 224.640625 C 292.375 225.054688 291.945312 225.441406 291.496094 225.8125 C 291.046875 226.179688 290.582031 226.527344 290.097656 226.847656 C 289.617188 227.171875 289.117188 227.46875 288.605469 227.742188 C 288.09375 228.019531 287.566406 228.265625 287.03125 228.488281 C 286.496094 228.710938 285.949219 228.90625 285.390625 229.074219 C 284.835938 229.242188 284.273438 229.382812 283.703125 229.496094 C 283.132812 229.609375 282.558594 229.695312 281.980469 229.753906 C 281.402344 229.808594 280.824219 229.839844 280.242188 229.839844 C 279.660156 229.839844 279.082031 229.808594 278.503906 229.753906 C 277.925781 229.695312 277.351562 229.609375 276.78125 229.496094 C 276.210938 229.382812 275.648438 229.242188 275.089844 229.074219 C 274.535156 228.90625 273.988281 228.710938 273.453125 228.488281 C 272.914062 228.265625 272.390625 228.019531 271.878906 227.742188 C 271.367188 227.46875 270.867188 227.171875 270.386719 226.847656 C 269.902344 226.527344 269.4375 226.179688 268.988281 225.8125 C 268.539062 225.441406 268.105469 225.054688 267.695312 224.640625 C 267.285156 224.230469 266.894531 223.800781 266.527344 223.351562 C 266.160156 222.902344 265.8125 222.4375 265.488281 221.953125 C 265.167969 221.46875 264.867188 220.972656 264.59375 220.460938 C 264.320312 219.949219 264.074219 219.421875 263.851562 218.886719 C 263.628906 218.347656 263.433594 217.804688 263.265625 217.246094 C 263.09375 216.691406 262.953125 216.128906 262.839844 215.558594 C 262.726562 214.988281 262.640625 214.414062 262.585938 213.835938 C 262.527344 213.257812 262.5 212.679688 262.5 212.097656 C 262.5 211.515625 262.527344 210.9375 262.585938 210.359375 C 262.640625 209.78125 262.726562 209.207031 262.839844 208.636719 C 262.953125 208.066406 263.09375 207.503906 263.265625 206.945312 C 263.433594 206.390625 263.628906 205.84375 263.851562 205.308594 C 264.074219 204.769531 264.320312 204.246094 264.59375 203.734375 C 264.867188 203.222656 265.167969 202.722656 265.488281 202.238281 C 265.8125 201.757812 266.160156 201.289062 266.527344 200.839844 C 266.894531 200.390625 267.285156 199.960938 267.695312 199.550781 C 268.105469 199.140625 268.539062 198.75 268.988281 198.382812 C 269.4375 198.011719 269.902344 197.667969 270.386719 197.34375 C 270.867188 197.023438 271.367188 196.722656 271.878906 196.449219 C 272.390625 196.175781 272.914062 195.925781 273.453125 195.707031 C 273.988281 195.484375 274.535156 195.289062 275.089844 195.117188 C 275.648438 194.949219 276.210938 194.808594 276.78125 194.695312 C 277.351562 194.582031 277.925781 194.496094 278.503906 194.441406 C 279.082031 194.382812 279.660156 194.355469 280.242188 194.355469 C 280.824219 194.355469 281.402344 194.382812 281.980469 194.441406 C 282.558594 194.496094 283.132812 194.582031 283.703125 194.695312 C 284.273438 194.808594 284.835938 194.949219 285.390625 195.117188 C 285.949219 195.289062 286.496094 195.484375 287.03125 195.707031 C 287.566406 195.925781 288.09375 196.175781 288.605469 196.449219 C 289.117188 196.722656 289.617188 197.023438 290.097656 197.34375 C 290.582031 197.667969 291.046875 198.011719 291.496094 198.382812 C 291.945312 198.75 292.375 199.140625 292.789062 199.550781 C 293.199219 199.960938 293.589844 200.390625 293.957031 200.839844 C 294.324219 201.289062 294.671875 201.757812 294.992188 202.238281 C 295.316406 202.722656 295.613281 203.222656 295.890625 203.734375 C 296.164062 204.246094 296.410156 204.769531 296.632812 205.308594 C 296.855469 205.84375 297.050781 206.390625 297.21875 206.945312 C 297.386719 207.503906 297.53125 208.066406 297.644531 208.636719 C 297.757812 209.207031 297.839844 209.78125 297.898438 210.359375 C 297.957031 210.9375 297.984375 211.515625 297.984375 212.097656 Z M 297.984375 212.097656 " fill-opacity="1" fill-rule="nonzero"/><path fill="#99c1a9" d="M 279.546875 202.636719 C 279.546875 202.632812 279.546875 202.625 279.542969 202.621094 C 279.472656 202.414062 279.398438 202.207031 279.316406 202 C 279.292969 201.945312 279.273438 201.886719 279.25 201.828125 C 279.15625 201.605469 279.058594 201.386719 278.953125 201.164062 C 278.949219 201.160156 278.949219 201.15625 278.945312 201.152344 C 276.835938 196.785156 272.136719 193.027344 268.433594 190.941406 C 264.734375 188.859375 260.652344 187.472656 256.429688 187.019531 C 252.457031 186.59375 247.429688 186.84375 243.988281 189.132812 C 236.378906 194.191406 240.628906 204.574219 246.296875 209.152344 C 253.4375 214.914062 263.371094 215.617188 272.089844 214.0625 C 276.167969 213.335938 279.625 211.054688 280.011719 206.617188 C 280.019531 206.542969 280.015625 206.46875 280.023438 206.390625 C 280.132812 205.117188 279.953125 203.859375 279.546875 202.636719 " fill-opacity="1" fill-rule="nonzero"/><g clip-path="url(#8779ff61fb)"><path fill="#ffcb51" d="M 313.835938 203.199219 C 310.316406 190.644531 292.191406 193.148438 282.871094 196.105469 C 276.460938 198.140625 270.234375 201.492188 265.363281 206.179688 C 261.972656 209.445312 259.292969 213.792969 258.914062 218.390625 C 258.277344 222.683594 259.480469 226.996094 263.5625 230.367188 C 272.792969 237.996094 287.753906 237.164062 297.734375 231.621094 C 302.640625 228.898438 306.84375 224.933594 309.917969 220.242188 C 313.121094 215.347656 315.480469 209.066406 313.835938 203.199219 " fill-opacity="1" fill-rule="nonzero"/></g><g clip-path="url(#fc35205325)"><g clip-path="url(#7737b7f98a)"><path fill="#494038" d="M 273.070312 202.648438 C 271.796875 201.679688 270.316406 200.804688 268.691406 201.433594 C 266.882812 202.132812 266.179688 204.035156 265.722656 205.765625 C 265.570312 206.34375 265.984375 206.726562 266.429688 206.777344 C 270.640625 210.304688 274.371094 214.097656 277.011719 218.984375 C 279.734375 224.023438 281.132812 229.570312 281.097656 235.296875 C 281.097656 235.738281 281.460938 236.054688 281.882812 236.082031 C 283.566406 236.183594 285.25 236.285156 286.933594 236.390625 C 287.371094 236.417969 287.683594 236.007812 287.710938 235.609375 C 288.296875 227.128906 285.953125 218.59375 281.273438 211.515625 C 279.039062 208.136719 276.289062 205.101562 273.070312 202.648438 " fill-opacity="1" fill-rule="nonzero"/></g></g><g clip-path="url(#a54f3d5a5b)"><g clip-path="url(#cc7b7efcd2)"><path fill="#494038" d="M 304.695312 224.152344 C 304.109375 219.011719 302.773438 213.980469 300.742188 209.226562 C 298.78125 204.644531 296.199219 199.503906 292.351562 196.207031 C 289.148438 193.460938 284.289062 192.429688 281.464844 196.214844 C 281.417969 196.277344 281.386719 196.339844 281.359375 196.398438 C 281.148438 196.519531 281.035156 196.804688 281.253906 197.039062 C 290.265625 206.53125 295.933594 218.242188 296.734375 231.40625 C 296.769531 231.9375 297.1875 232.210938 297.6875 232.132812 C 299.75 231.816406 301.96875 231.410156 303.480469 229.832031 C 305 228.242188 304.925781 226.199219 304.695312 224.152344 " fill-opacity="1" fill-rule="nonzero"/></g></g><path fill="#494038" d="M 307.058594 205.414062 C 306.96875 205.09375 306.804688 204.816406 306.574219 204.578125 C 306.445312 204.480469 306.316406 204.382812 306.191406 204.285156 C 305.894531 204.113281 305.578125 204.027344 305.238281 204.023438 C 304.976562 204.015625 304.734375 204.070312 304.511719 204.1875 C 304.277344 204.265625 304.074219 204.394531 303.902344 204.578125 C 303.71875 204.75 303.589844 204.953125 303.515625 205.1875 C 303.394531 205.414062 303.339844 205.65625 303.351562 205.917969 C 303.375 206.085938 303.394531 206.253906 303.417969 206.421875 C 303.507812 206.742188 303.671875 207.019531 303.902344 207.253906 C 304.03125 207.355469 304.160156 207.453125 304.285156 207.550781 C 304.582031 207.722656 304.898438 207.808594 305.238281 207.808594 C 305.496094 207.820312 305.742188 207.765625 305.964844 207.648438 C 306.199219 207.570312 306.402344 207.441406 306.574219 207.253906 C 306.757812 207.085938 306.886719 206.882812 306.960938 206.648438 C 307.082031 206.421875 307.136719 206.179688 307.125 205.917969 C 307.101562 205.75 307.078125 205.582031 307.058594 205.414062 " fill-opacity="1" fill-rule="nonzero"/><path fill="#494038" d="M 264.371094 219.664062 C 263.605469 219.25 262.652344 219.433594 262.050781 220.101562 C 260.675781 221.625 258.160156 224.464844 256.785156 226.34375 C 256.632812 226.550781 256.59375 226.808594 256.667969 227.054688 C 256.746094 227.296875 256.929688 227.484375 257.171875 227.5625 C 257.765625 227.761719 258.691406 227.972656 259.96875 227.972656 C 261.40625 227.972656 263.285156 227.707031 265.625 226.863281 C 266.410156 226.582031 266.953125 225.824219 266.972656 224.980469 C 267.011719 223.539062 266.726562 220.933594 264.371094 219.664062 " fill-opacity="1" fill-rule="nonzero"/><path fill="#b1dfc4" d="M 288.40625 195.890625 C 287.019531 191.628906 283.597656 187.546875 280.652344 184.980469 C 277.453125 182.191406 273.746094 179.96875 269.703125 178.65625 C 265.902344 177.421875 261.152344 176.695312 257.265625 177.972656 C 253.828125 179.101562 251.496094 182.324219 250.960938 185.84375 C 250.320312 190.011719 251.929688 194.199219 254.425781 197.484375 C 260.121094 204.964844 269.832031 207.714844 278.847656 208.023438 C 283.0625 208.167969 287.136719 206.921875 288.570312 202.558594 C 289.304688 200.332031 289.152344 198.019531 288.40625 195.890625 " fill-opacity="1" fill-rule="nonzero"/></svg>